<svg width="13" height="10" viewBox="0 0 13 10" fill="none" xmlns="http://www.w3.org/2000/svg">
<path d="M7.93945 0.646403L12.2929 4.99985L7.9395 9.35324C7.93948 9.35326 7.93946 9.35328 7.93945 9.3533C7.84569 9.447 7.71856 9.49964 7.586 9.49964C7.45342 9.49964 7.32626 9.44698 7.2325 9.35324L7.23154 9.35229C7.18509 9.3061 7.14822 9.25118 7.12307 9.1907C7.09791 9.13022 7.08497 9.06536 7.08497 8.99985C7.08497 8.93434 7.09791 8.86948 7.12307 8.809C7.14822 8.74851 7.18509 8.6936 7.23154 8.64741L7.23255 8.6464L9.52555 6.3534L10.3791 5.49985L9.172 5.49985L1.586 5.49985C1.45339 5.49985 1.32621 5.44717 1.23245 5.3534C1.13868 5.25963 1.086 5.13246 1.086 4.99985C1.086 4.86724 1.13868 4.74006 1.23245 4.6463C1.32621 4.55253 1.45339 4.49985 1.586 4.49985L9.172 4.49985L10.3791 4.49985L9.52555 3.6463L7.23255 1.3533C7.18614 1.30688 7.14932 1.25178 7.1242 1.19113C7.09908 1.13049 7.08615 1.06549 7.08615 0.999849C7.08615 0.934208 7.09908 0.86921 7.1242 0.808565C7.14932 0.747922 7.18614 0.692819 7.23255 0.646403C7.27897 0.599987 7.33407 0.563168 7.39472 0.538049C7.45536 0.512929 7.52036 0.5 7.586 0.5C7.65164 0.5 7.71664 0.512929 7.77728 0.538049C7.83793 0.563168 7.89303 0.599987 7.93945 0.646403Z" stroke="black"/>
</svg>
