<svg width="20" height="20" viewBox="0 0 20 20" fill="none" xmlns="http://www.w3.org/2000/svg">
    <path
        d="M8.57143 11.4286H1.42858C1.02381 11.4286 0.684767 11.2914 0.411433 11.0171C0.1381 10.7429 0.000957307 10.4038 4.9261e-06 10C-0.000947454 9.59619 0.136196 9.25714 0.411433 8.98286C0.686671 8.70857 1.02572 8.57143 1.42858 8.57143H8.57143V1.42858C8.57143 1.02381 8.70857 0.684767 8.98286 0.411433C9.25714 0.1381 9.59619 0.000957307 10 4.9261e-06C10.4038 -0.000947454 10.7433 0.136196 11.0186 0.411433C11.2938 0.686671 11.4305 1.02572 11.4286 1.42858V8.57143H18.5714C18.9762 8.57143 19.3157 8.70857 19.59 8.98286C19.8643 9.25714 20.0009 9.59619 20 10C19.999 10.4038 19.8619 10.7433 19.5886 11.0186C19.3152 11.2938 18.9762 11.4305 18.5714 11.4286H11.4286L11.4286 18.5714C11.4286 18.9762 11.2914 19.3157 11.0171 19.59C10.7429 19.8643 10.4038 20.0009 10 20C9.59619 19.999 9.25714 19.8619 8.98286 19.5886C8.70857 19.3152 8.57143 18.9762 8.57143 18.5714L8.57143 11.4286Z"
        fill="#fff" />
</svg>